<svg  viewBox="0 0 28 28" fill="none" xmlns="http://www.w3.org/2000/svg">
<path d="M6.56537 4.75787L6.07765 4.26814C5.58993 3.77842 4.80207 3.79097 4.32685 4.26814L4.31435 4.2807C3.82663 4.77043 3.82663 5.56152 4.31435 6.03869L4.80207 6.52842C5.28979 7.01814 6.06514 7.01814 6.55287 6.52842L6.56537 6.51586C7.05309 6.03869 7.05309 5.23504 6.56537 4.75787ZM2.76364 12.7442H1.48806C0.80025 12.7442 0.25 13.2967 0.25 13.9873V13.9999C0.25 14.6905 0.80025 15.243 1.48806 15.243H2.75114C3.45146 15.2556 4.00171 14.7031 4.00171 14.0124V13.9999C4.00171 13.2967 3.45146 12.7442 2.76364 12.7442ZM14.0188 0.249878H14.0063C13.3059 0.249878 12.7557 0.802389 12.7557 1.49303V2.69851C12.7557 3.38915 13.3059 3.94166 13.9937 3.94166H14.0063C14.7066 3.95422 15.2568 3.4017 15.2568 2.71106V1.49303C15.2568 0.802389 14.7066 0.249878 14.0188 0.249878ZM23.6982 4.2807C23.2104 3.79097 22.4226 3.79097 21.9349 4.26814L21.4471 4.75787C20.9594 5.24759 20.9594 6.03869 21.4471 6.51586L21.4596 6.52842C21.9474 7.01814 22.7352 7.01814 23.2104 6.52842L23.6982 6.03869C24.1859 5.54896 24.1859 4.77043 23.6982 4.2807ZM21.4346 23.2419L21.9224 23.7316C22.4101 24.2213 23.1979 24.2213 23.6857 23.7316C24.1734 23.2419 24.1734 22.4508 23.6857 21.9611L23.1979 21.4713C22.7102 20.9816 21.9224 20.9942 21.4471 21.4713C20.9469 21.9736 20.9469 22.7522 21.4346 23.2419ZM24.0108 13.9873V13.9999C24.0108 14.6905 24.5611 15.243 25.2489 15.243H26.5119C27.1998 15.243 27.75 14.6905 27.75 13.9999V13.9873C27.75 13.2967 27.1998 12.7442 26.5119 12.7442H25.2489C24.5611 12.7442 24.0108 13.2967 24.0108 13.9873ZM14.0063 6.46563C9.86687 6.46563 6.50284 9.84348 6.50284 13.9999C6.50284 18.1563 9.86687 21.5341 14.0063 21.5341C18.1456 21.5341 21.5097 18.1563 21.5097 13.9999C21.5097 9.84348 18.1456 6.46563 14.0063 6.46563ZM13.9937 27.7499H14.0063C14.6941 27.7499 15.2443 27.1974 15.2443 26.5067V25.3012C15.2443 24.6106 14.6941 24.0581 14.0063 24.0581H13.9937C13.3059 24.0581 12.7557 24.6106 12.7557 25.3012V26.5067C12.7557 27.1974 13.3059 27.7499 13.9937 27.7499ZM4.31435 23.7191C4.80207 24.2088 5.58993 24.2088 6.07765 23.7191L6.56537 23.2293C7.05309 22.7396 7.04059 21.9485 6.56537 21.4713L6.55287 21.4588C6.06514 20.9691 5.27729 20.9691 4.78956 21.4588L4.30184 21.9485C3.82663 22.4508 3.82663 23.2293 4.31435 23.7191Z" fill="white" fill-opacity="0.8"/>
</svg>
