<svg  viewBox="0 0 35 28" fill="none" xmlns="http://www.w3.org/2000/svg">
<path d="M4.90936 4.22384L4.53019 3.8555C4.15102 3.48717 3.53852 3.49662 3.16908 3.8555L3.15936 3.86495C2.78019 4.23328 2.78019 4.82828 3.15936 5.18717L3.53852 5.55551C3.91769 5.92384 4.52047 5.92384 4.89963 5.55551L4.90936 5.54606C5.28852 5.18717 5.28852 4.58273 4.90936 4.22384Z" fill="white"/>
<path d="M1.9538 10.2305H0.962134C0.427412 10.2305 -0.000366211 10.6461 -0.000366211 11.1655V11.1749C-0.000366211 11.6944 0.427412 12.1099 0.962134 12.1099H1.94408C2.48852 12.1194 2.9163 11.7038 2.9163 11.1844V11.1749C2.9163 10.6461 2.48852 10.2305 1.9538 10.2305Z" fill="white"/>
<path d="M10.7038 0.833282H10.6941C10.1496 0.833282 9.72186 1.24884 9.72186 1.76828V2.67495C9.72186 3.19439 10.1496 3.60995 10.6844 3.60995H10.6941C11.2385 3.61939 11.6663 3.20384 11.6663 2.68439V1.76828C11.6663 1.24884 11.2385 0.833282 10.7038 0.833282Z" fill="white"/>
<path d="M18.2288 3.86495C17.8496 3.49662 17.2371 3.49662 16.858 3.8555L16.4788 4.22384C16.0996 4.59217 16.0996 5.18717 16.4788 5.54606L16.4885 5.55551C16.8677 5.92384 17.4802 5.92384 17.8496 5.55551L18.2288 5.18717C18.608 4.81884 18.608 4.23328 18.2288 3.86495Z" fill="white"/>
<path d="M10.6941 5.50828C7.47602 5.50828 4.86075 8.04884 4.86075 11.1749C4.86075 13.2013 5.95959 14.9816 7.60918 15.9835C8.39851 13.7622 10.5698 12.1666 13.1246 12.1666C13.2252 12.1666 13.3251 12.1691 13.4244 12.174C13.8456 10.722 14.689 9.44199 15.8179 8.46694C14.8278 6.70525 12.9029 5.50828 10.6941 5.50828Z" fill="white"/>
<path d="M3.15936 18.485C3.53852 18.8533 4.15102 18.8533 4.53019 18.485L4.90936 18.1166C5.28852 17.7483 5.2788 17.1533 4.90936 16.7944L4.89963 16.785C4.52047 16.4166 3.90797 16.4166 3.5288 16.785L3.14963 17.1533C2.78019 17.5311 2.78019 18.1166 3.15936 18.485Z" fill="white"/>
<path d="M10.208 27.7499H29.1663C32.388 27.7499 34.9996 25.2129 34.9996 22.0833C34.9996 19.4254 33.1159 17.1949 30.5747 16.5829C30.6077 16.2958 30.6246 16.004 30.6246 15.7083C30.6246 11.4051 27.0336 7.91662 22.6038 7.91662C18.9296 7.91662 15.8324 10.3165 14.8828 13.5906C14.7835 13.5858 14.6835 13.5833 14.583 13.5833C11.3613 13.5833 8.74963 16.1203 8.74963 19.2499C8.74963 19.3304 8.75136 19.4104 8.75477 19.49C7.05285 20.072 5.83297 21.6476 5.83297 23.4999C5.83297 25.8472 7.79172 27.7499 10.208 27.7499Z" fill="white"/>
</svg>
