<svg viewBox="0 0 24 23" fill="none" xmlns="http://www.w3.org/2000/svg">
<path d="M3.83337 16.8331H19C21.5774 16.8331 23.6667 14.7437 23.6667 12.1664C23.6667 9.97755 22.1598 8.14067 20.1267 7.63666C20.1531 7.40022 20.1667 7.15989 20.1667 6.9164C20.1667 3.37257 17.2939 0.499733 13.75 0.499733C10.8107 0.499733 8.33295 2.4761 7.5732 5.17246C7.49377 5.16844 7.41381 5.1664 7.33337 5.1664C4.75604 5.1664 2.66671 7.25574 2.66671 9.83307C2.66671 9.8993 2.66809 9.96521 2.67082 10.0308C1.30928 10.5101 0.333374 11.8076 0.333374 13.3331C0.333374 15.2661 1.90038 16.8331 3.83337 16.8331Z" fill="white" fill-opacity="0.6"/>
<path d="M6.6504 17.9997C6.35396 17.9997 6.08297 18.1672 5.9504 18.4324L4.39969 21.5338C4.1395 22.0541 4.5179 22.6664 5.09969 22.6664C5.39612 22.6664 5.66712 22.4989 5.79969 22.2338L7.3504 19.1324C7.61058 18.612 7.23218 17.9997 6.6504 17.9997Z" fill="white" fill-opacity="0.6"/>
<path d="M10.1504 17.9997C10.7322 17.9997 11.1106 18.612 10.8504 19.1324L9.29969 22.2338C9.16712 22.4989 8.89612 22.6664 8.59969 22.6664C8.0179 22.6664 7.6395 22.0541 7.89969 21.5338L9.4504 18.4324C9.58297 18.1672 9.85396 17.9997 10.1504 17.9997Z" fill="white" fill-opacity="0.6"/>
<path d="M17.1504 17.9997C17.7322 17.9997 18.1106 18.612 17.8504 19.1324L16.2997 22.2338C16.1671 22.4989 15.8961 22.6664 15.5997 22.6664C15.0179 22.6664 14.6395 22.0541 14.8997 21.5338L16.4504 18.4324C16.583 18.1672 16.854 17.9997 17.1504 17.9997Z" fill="white" fill-opacity="0.6"/>
<path d="M13.6504 17.9997C14.2322 17.9997 14.6106 18.612 14.3504 19.1324L12.7997 22.2338C12.6671 22.4989 12.3961 22.6664 12.0997 22.6664C11.5179 22.6664 11.1395 22.0541 11.3997 21.5338L12.9504 18.4324C13.083 18.1672 13.354 17.9997 13.6504 17.9997Z" fill="white" fill-opacity="0.6"/>
</svg>
