<svg viewBox="0 0 30 30" fill="none" xmlns="http://www.w3.org/2000/svg">
<path d="M3.88321 2.66654L4.20821 2.99154C4.53321 3.30821 4.53321 3.84154 4.20821 4.15821L4.19988 4.16654C3.87488 4.49155 3.35821 4.49155 3.03321 4.16654L2.70821 3.84154C2.38321 3.52488 2.38321 2.99988 2.70821 2.67488L2.71655 2.66654C3.03321 2.34988 3.55821 2.34154 3.88321 2.66654Z" fill="white" fill-opacity="1.0"/>
<path d="M0.824878 8.29155H1.67488C2.13321 8.29155 2.49988 8.65821 2.49988 9.12488V9.13321C2.49988 9.59155 2.13321 9.95821 1.66654 9.94988H0.824878C0.366545 9.94988 -0.00012207 9.58321 -0.00012207 9.12488V9.11655C-0.00012207 8.65821 0.366545 8.29155 0.824878 8.29155Z" fill="white" fill-opacity="1.0"/>
<path d="M9.16654 -0.00012207H9.17488C9.63321 -0.00012207 9.99988 0.366545 9.99988 0.824878V1.63321C9.99988 2.09154 9.63321 2.45821 9.16654 2.44988H9.15821C8.69988 2.44988 8.33321 2.08321 8.33321 1.62488V0.824878C8.33321 0.366545 8.69988 -0.00012207 9.16654 -0.00012207Z" fill="white" fill-opacity="1.0"/>
<path d="M14.4499 2.66654C14.7749 2.34988 15.2999 2.34988 15.6249 2.67488C15.9499 2.99988 15.9499 3.51654 15.6249 3.84154L15.2999 4.16654C14.9832 4.49155 14.4582 4.49155 14.1332 4.16654L14.1249 4.15821C13.7999 3.84154 13.7999 3.31655 14.1249 2.99154L14.4499 2.66654Z" fill="white" fill-opacity="1.0"/>
<path d="M4.16654 9.12488C4.16654 6.36655 6.40821 4.12488 9.16654 4.12488C11.0599 4.12488 12.7097 5.18102 13.5584 6.73546C12.5908 7.59579 11.8678 8.72523 11.5068 10.0064C11.4217 10.0021 11.3361 9.99988 11.2499 9.99988C9.05999 9.99988 7.19891 11.4077 6.52235 13.3677C5.10841 12.4837 4.16654 10.9128 4.16654 9.12488Z" fill="white" fill-opacity="1.0"/>
<path d="M3.88321 15.5749C3.55821 15.8999 3.03321 15.8999 2.70821 15.5749C2.38321 15.2499 2.38321 14.7332 2.69988 14.3999L3.02488 14.0749C3.34988 13.7499 3.87488 13.7499 4.19988 14.0749L4.20821 14.0832C4.52488 14.3999 4.53321 14.9249 4.20821 15.2499L3.88321 15.5749Z" fill="white" fill-opacity="1.0"/>
<path d="M24.9999 23.7499H8.74988C6.67881 23.7499 4.99988 22.0709 4.99988 19.9999C4.99988 18.3655 6.04549 16.9753 7.50428 16.4617C7.50136 16.3915 7.49988 16.3208 7.49988 16.2499C7.49988 13.4885 9.73845 11.2499 12.4999 11.2499C12.5861 11.2499 12.6717 11.2521 12.7568 11.2564C13.5709 8.36742 16.2256 6.24988 19.3749 6.24988C23.1718 6.24988 26.2499 9.32792 26.2499 13.1249C26.2499 13.3858 26.2353 13.6433 26.2071 13.8966C28.3853 14.4366 29.9999 16.4047 29.9999 18.7499C29.9999 21.5113 27.7613 23.7499 24.9999 23.7499Z" fill="white" fill-opacity="1.0"/>
<path d="M12.4816 28.7864L14.1431 25.4634C14.2852 25.1793 14.5755 24.9999 14.8931 24.9999C15.5165 24.9999 15.9219 25.6559 15.6431 26.2134L13.9816 29.5364C13.8396 29.8204 13.5493 29.9999 13.2316 29.9999C12.6083 29.9999 12.2029 29.3439 12.4816 28.7864Z" fill="white" fill-opacity="1.0"/>
<path d="M16.2316 28.7864L17.8931 25.4634C18.0352 25.1793 18.3255 24.9999 18.6431 24.9999C19.2665 24.9999 19.6719 25.6559 19.3931 26.2134L17.7316 29.5364C17.5896 29.8204 17.2992 29.9999 16.9816 29.9999C16.3583 29.9999 15.9529 29.3439 16.2316 28.7864Z" fill="white" fill-opacity="1.0"/>
</svg>
