<svg viewBox="0 0 24 23" fill="none" xmlns="http://www.w3.org/2000/svg">
<path d="M15.5104 16.8331H19C21.5774 16.8331 23.6667 14.7437 23.6667 12.1664C23.6667 9.97755 22.1598 8.14067 20.1267 7.63666C20.1531 7.40022 20.1667 7.15989 20.1667 6.9164C20.1667 3.37257 17.2939 0.499733 13.75 0.499733C10.8107 0.499733 8.33295 2.4761 7.5732 5.17246C7.49377 5.16844 7.41381 5.1664 7.33337 5.1664C4.75604 5.1664 2.66671 7.25574 2.66671 9.83307C2.66671 9.8993 2.66809 9.96521 2.67082 10.0308C1.30928 10.5101 0.333374 11.8076 0.333374 13.3331C0.333374 15.2661 1.90038 16.8331 3.83337 16.8331H7.15633L12.1538 8.08757C12.7473 7.04883 14.3334 7.47003 14.3334 8.6664V13.3331H15.5C16.3958 13.3331 16.9574 14.3008 16.513 15.0786L15.5104 16.8331Z" fill="white" fill-opacity="0.6"/>
<path d="M8.50004 16.8331L13.1667 8.6664V14.4997H15.5L10.8334 22.6664V16.8331H8.50004Z" fill="white" fill-opacity="0.6"/>
</svg>
